G04 #@! TF.GenerationSoftware,KiCad,Pcbnew,5.1.2*
G04 #@! TF.CreationDate,2019-11-06T15:15:23-05:00*
G04 #@! TF.ProjectId,rochester_makerfaire,726f6368-6573-4746-9572-5f6d616b6572,rev?*
G04 #@! TF.SameCoordinates,Original*
G04 #@! TF.FileFunction,Soldermask,Bot*
G04 #@! TF.FilePolarity,Negative*
%FSLAX46Y46*%
G04 Gerber Fmt 4.6, Leading zero omitted, Abs format (unit mm)*
G04 Created by KiCad (PCBNEW 5.1.2) date 2019-11-06 15:15:23*
%MOMM*%
%LPD*%
G04 APERTURE LIST*
%ADD10C,7.400000*%
%ADD11C,3.400000*%
%ADD12C,2.800000*%
%ADD13C,2.200000*%
%ADD14R,2.200000X2.200000*%
%ADD15C,0.100000*%
%ADD16C,1.650000*%
%ADD17C,1.375000*%
%ADD18C,1.275000*%
%ADD19C,0.990000*%
G04 APERTURE END LIST*
D10*
X82400000Y-72000000D03*
D11*
X75800000Y-72000000D03*
X89000000Y-72000000D03*
D12*
X82000000Y-56500000D03*
D13*
X107540000Y-81000000D03*
D14*
X105000000Y-81000000D03*
D15*
G36*
X81827346Y-83026589D02*
G01*
X81859380Y-83031341D01*
X81890794Y-83039210D01*
X81921286Y-83050120D01*
X81950561Y-83063966D01*
X81978338Y-83080615D01*
X82004350Y-83099907D01*
X82028345Y-83121655D01*
X82050093Y-83145650D01*
X82069385Y-83171662D01*
X82086034Y-83199439D01*
X82099880Y-83228714D01*
X82110790Y-83259206D01*
X82118659Y-83290620D01*
X82123411Y-83322654D01*
X82125000Y-83355000D01*
X82125000Y-84845000D01*
X82123411Y-84877346D01*
X82118659Y-84909380D01*
X82110790Y-84940794D01*
X82099880Y-84971286D01*
X82086034Y-85000561D01*
X82069385Y-85028338D01*
X82050093Y-85054350D01*
X82028345Y-85078345D01*
X82004350Y-85100093D01*
X81978338Y-85119385D01*
X81950561Y-85136034D01*
X81921286Y-85149880D01*
X81890794Y-85160790D01*
X81859380Y-85168659D01*
X81827346Y-85173411D01*
X81795000Y-85175000D01*
X80805000Y-85175000D01*
X80772654Y-85173411D01*
X80740620Y-85168659D01*
X80709206Y-85160790D01*
X80678714Y-85149880D01*
X80649439Y-85136034D01*
X80621662Y-85119385D01*
X80595650Y-85100093D01*
X80571655Y-85078345D01*
X80549907Y-85054350D01*
X80530615Y-85028338D01*
X80513966Y-85000561D01*
X80500120Y-84971286D01*
X80489210Y-84940794D01*
X80481341Y-84909380D01*
X80476589Y-84877346D01*
X80475000Y-84845000D01*
X80475000Y-83355000D01*
X80476589Y-83322654D01*
X80481341Y-83290620D01*
X80489210Y-83259206D01*
X80500120Y-83228714D01*
X80513966Y-83199439D01*
X80530615Y-83171662D01*
X80549907Y-83145650D01*
X80571655Y-83121655D01*
X80595650Y-83099907D01*
X80621662Y-83080615D01*
X80649439Y-83063966D01*
X80678714Y-83050120D01*
X80709206Y-83039210D01*
X80740620Y-83031341D01*
X80772654Y-83026589D01*
X80805000Y-83025000D01*
X81795000Y-83025000D01*
X81827346Y-83026589D01*
X81827346Y-83026589D01*
G37*
D16*
X81300000Y-84100000D03*
D15*
G36*
X84627346Y-83026589D02*
G01*
X84659380Y-83031341D01*
X84690794Y-83039210D01*
X84721286Y-83050120D01*
X84750561Y-83063966D01*
X84778338Y-83080615D01*
X84804350Y-83099907D01*
X84828345Y-83121655D01*
X84850093Y-83145650D01*
X84869385Y-83171662D01*
X84886034Y-83199439D01*
X84899880Y-83228714D01*
X84910790Y-83259206D01*
X84918659Y-83290620D01*
X84923411Y-83322654D01*
X84925000Y-83355000D01*
X84925000Y-84845000D01*
X84923411Y-84877346D01*
X84918659Y-84909380D01*
X84910790Y-84940794D01*
X84899880Y-84971286D01*
X84886034Y-85000561D01*
X84869385Y-85028338D01*
X84850093Y-85054350D01*
X84828345Y-85078345D01*
X84804350Y-85100093D01*
X84778338Y-85119385D01*
X84750561Y-85136034D01*
X84721286Y-85149880D01*
X84690794Y-85160790D01*
X84659380Y-85168659D01*
X84627346Y-85173411D01*
X84595000Y-85175000D01*
X83605000Y-85175000D01*
X83572654Y-85173411D01*
X83540620Y-85168659D01*
X83509206Y-85160790D01*
X83478714Y-85149880D01*
X83449439Y-85136034D01*
X83421662Y-85119385D01*
X83395650Y-85100093D01*
X83371655Y-85078345D01*
X83349907Y-85054350D01*
X83330615Y-85028338D01*
X83313966Y-85000561D01*
X83300120Y-84971286D01*
X83289210Y-84940794D01*
X83281341Y-84909380D01*
X83276589Y-84877346D01*
X83275000Y-84845000D01*
X83275000Y-83355000D01*
X83276589Y-83322654D01*
X83281341Y-83290620D01*
X83289210Y-83259206D01*
X83300120Y-83228714D01*
X83313966Y-83199439D01*
X83330615Y-83171662D01*
X83349907Y-83145650D01*
X83371655Y-83121655D01*
X83395650Y-83099907D01*
X83421662Y-83080615D01*
X83449439Y-83063966D01*
X83478714Y-83050120D01*
X83509206Y-83039210D01*
X83540620Y-83031341D01*
X83572654Y-83026589D01*
X83605000Y-83025000D01*
X84595000Y-83025000D01*
X84627346Y-83026589D01*
X84627346Y-83026589D01*
G37*
D16*
X84100000Y-84100000D03*
D15*
G36*
X82739943Y-89301655D02*
G01*
X82773312Y-89306605D01*
X82806035Y-89314802D01*
X82837797Y-89326166D01*
X82868293Y-89340590D01*
X82897227Y-89357932D01*
X82924323Y-89378028D01*
X82949318Y-89400682D01*
X82971972Y-89425677D01*
X82992068Y-89452773D01*
X83009410Y-89481707D01*
X83023834Y-89512203D01*
X83035198Y-89543965D01*
X83043395Y-89576688D01*
X83048345Y-89610057D01*
X83050000Y-89643750D01*
X83050000Y-90756250D01*
X83048345Y-90789943D01*
X83043395Y-90823312D01*
X83035198Y-90856035D01*
X83023834Y-90887797D01*
X83009410Y-90918293D01*
X82992068Y-90947227D01*
X82971972Y-90974323D01*
X82949318Y-90999318D01*
X82924323Y-91021972D01*
X82897227Y-91042068D01*
X82868293Y-91059410D01*
X82837797Y-91073834D01*
X82806035Y-91085198D01*
X82773312Y-91093395D01*
X82739943Y-91098345D01*
X82706250Y-91100000D01*
X82018750Y-91100000D01*
X81985057Y-91098345D01*
X81951688Y-91093395D01*
X81918965Y-91085198D01*
X81887203Y-91073834D01*
X81856707Y-91059410D01*
X81827773Y-91042068D01*
X81800677Y-91021972D01*
X81775682Y-90999318D01*
X81753028Y-90974323D01*
X81732932Y-90947227D01*
X81715590Y-90918293D01*
X81701166Y-90887797D01*
X81689802Y-90856035D01*
X81681605Y-90823312D01*
X81676655Y-90789943D01*
X81675000Y-90756250D01*
X81675000Y-89643750D01*
X81676655Y-89610057D01*
X81681605Y-89576688D01*
X81689802Y-89543965D01*
X81701166Y-89512203D01*
X81715590Y-89481707D01*
X81732932Y-89452773D01*
X81753028Y-89425677D01*
X81775682Y-89400682D01*
X81800677Y-89378028D01*
X81827773Y-89357932D01*
X81856707Y-89340590D01*
X81887203Y-89326166D01*
X81918965Y-89314802D01*
X81951688Y-89306605D01*
X81985057Y-89301655D01*
X82018750Y-89300000D01*
X82706250Y-89300000D01*
X82739943Y-89301655D01*
X82739943Y-89301655D01*
G37*
D17*
X82362500Y-90200000D03*
D15*
G36*
X84614943Y-89301655D02*
G01*
X84648312Y-89306605D01*
X84681035Y-89314802D01*
X84712797Y-89326166D01*
X84743293Y-89340590D01*
X84772227Y-89357932D01*
X84799323Y-89378028D01*
X84824318Y-89400682D01*
X84846972Y-89425677D01*
X84867068Y-89452773D01*
X84884410Y-89481707D01*
X84898834Y-89512203D01*
X84910198Y-89543965D01*
X84918395Y-89576688D01*
X84923345Y-89610057D01*
X84925000Y-89643750D01*
X84925000Y-90756250D01*
X84923345Y-90789943D01*
X84918395Y-90823312D01*
X84910198Y-90856035D01*
X84898834Y-90887797D01*
X84884410Y-90918293D01*
X84867068Y-90947227D01*
X84846972Y-90974323D01*
X84824318Y-90999318D01*
X84799323Y-91021972D01*
X84772227Y-91042068D01*
X84743293Y-91059410D01*
X84712797Y-91073834D01*
X84681035Y-91085198D01*
X84648312Y-91093395D01*
X84614943Y-91098345D01*
X84581250Y-91100000D01*
X83893750Y-91100000D01*
X83860057Y-91098345D01*
X83826688Y-91093395D01*
X83793965Y-91085198D01*
X83762203Y-91073834D01*
X83731707Y-91059410D01*
X83702773Y-91042068D01*
X83675677Y-91021972D01*
X83650682Y-90999318D01*
X83628028Y-90974323D01*
X83607932Y-90947227D01*
X83590590Y-90918293D01*
X83576166Y-90887797D01*
X83564802Y-90856035D01*
X83556605Y-90823312D01*
X83551655Y-90789943D01*
X83550000Y-90756250D01*
X83550000Y-89643750D01*
X83551655Y-89610057D01*
X83556605Y-89576688D01*
X83564802Y-89543965D01*
X83576166Y-89512203D01*
X83590590Y-89481707D01*
X83607932Y-89452773D01*
X83628028Y-89425677D01*
X83650682Y-89400682D01*
X83675677Y-89378028D01*
X83702773Y-89357932D01*
X83731707Y-89340590D01*
X83762203Y-89326166D01*
X83793965Y-89314802D01*
X83826688Y-89306605D01*
X83860057Y-89301655D01*
X83893750Y-89300000D01*
X84581250Y-89300000D01*
X84614943Y-89301655D01*
X84614943Y-89301655D01*
G37*
D17*
X84237500Y-90200000D03*
D15*
G36*
X64062493Y-83126535D02*
G01*
X64093435Y-83131125D01*
X64123778Y-83138725D01*
X64153230Y-83149263D01*
X64181508Y-83162638D01*
X64208338Y-83178719D01*
X64233463Y-83197353D01*
X64256640Y-83218360D01*
X64277647Y-83241537D01*
X64296281Y-83266662D01*
X64312362Y-83293492D01*
X64325737Y-83321770D01*
X64336275Y-83351222D01*
X64343875Y-83381565D01*
X64348465Y-83412507D01*
X64350000Y-83443750D01*
X64350000Y-84156250D01*
X64348465Y-84187493D01*
X64343875Y-84218435D01*
X64336275Y-84248778D01*
X64325737Y-84278230D01*
X64312362Y-84306508D01*
X64296281Y-84333338D01*
X64277647Y-84358463D01*
X64256640Y-84381640D01*
X64233463Y-84402647D01*
X64208338Y-84421281D01*
X64181508Y-84437362D01*
X64153230Y-84450737D01*
X64123778Y-84461275D01*
X64093435Y-84468875D01*
X64062493Y-84473465D01*
X64031250Y-84475000D01*
X63393750Y-84475000D01*
X63362507Y-84473465D01*
X63331565Y-84468875D01*
X63301222Y-84461275D01*
X63271770Y-84450737D01*
X63243492Y-84437362D01*
X63216662Y-84421281D01*
X63191537Y-84402647D01*
X63168360Y-84381640D01*
X63147353Y-84358463D01*
X63128719Y-84333338D01*
X63112638Y-84306508D01*
X63099263Y-84278230D01*
X63088725Y-84248778D01*
X63081125Y-84218435D01*
X63076535Y-84187493D01*
X63075000Y-84156250D01*
X63075000Y-83443750D01*
X63076535Y-83412507D01*
X63081125Y-83381565D01*
X63088725Y-83351222D01*
X63099263Y-83321770D01*
X63112638Y-83293492D01*
X63128719Y-83266662D01*
X63147353Y-83241537D01*
X63168360Y-83218360D01*
X63191537Y-83197353D01*
X63216662Y-83178719D01*
X63243492Y-83162638D01*
X63271770Y-83149263D01*
X63301222Y-83138725D01*
X63331565Y-83131125D01*
X63362507Y-83126535D01*
X63393750Y-83125000D01*
X64031250Y-83125000D01*
X64062493Y-83126535D01*
X64062493Y-83126535D01*
G37*
D18*
X63712500Y-83800000D03*
D15*
G36*
X65637493Y-83126535D02*
G01*
X65668435Y-83131125D01*
X65698778Y-83138725D01*
X65728230Y-83149263D01*
X65756508Y-83162638D01*
X65783338Y-83178719D01*
X65808463Y-83197353D01*
X65831640Y-83218360D01*
X65852647Y-83241537D01*
X65871281Y-83266662D01*
X65887362Y-83293492D01*
X65900737Y-83321770D01*
X65911275Y-83351222D01*
X65918875Y-83381565D01*
X65923465Y-83412507D01*
X65925000Y-83443750D01*
X65925000Y-84156250D01*
X65923465Y-84187493D01*
X65918875Y-84218435D01*
X65911275Y-84248778D01*
X65900737Y-84278230D01*
X65887362Y-84306508D01*
X65871281Y-84333338D01*
X65852647Y-84358463D01*
X65831640Y-84381640D01*
X65808463Y-84402647D01*
X65783338Y-84421281D01*
X65756508Y-84437362D01*
X65728230Y-84450737D01*
X65698778Y-84461275D01*
X65668435Y-84468875D01*
X65637493Y-84473465D01*
X65606250Y-84475000D01*
X64968750Y-84475000D01*
X64937507Y-84473465D01*
X64906565Y-84468875D01*
X64876222Y-84461275D01*
X64846770Y-84450737D01*
X64818492Y-84437362D01*
X64791662Y-84421281D01*
X64766537Y-84402647D01*
X64743360Y-84381640D01*
X64722353Y-84358463D01*
X64703719Y-84333338D01*
X64687638Y-84306508D01*
X64674263Y-84278230D01*
X64663725Y-84248778D01*
X64656125Y-84218435D01*
X64651535Y-84187493D01*
X64650000Y-84156250D01*
X64650000Y-83443750D01*
X64651535Y-83412507D01*
X64656125Y-83381565D01*
X64663725Y-83351222D01*
X64674263Y-83321770D01*
X64687638Y-83293492D01*
X64703719Y-83266662D01*
X64722353Y-83241537D01*
X64743360Y-83218360D01*
X64766537Y-83197353D01*
X64791662Y-83178719D01*
X64818492Y-83162638D01*
X64846770Y-83149263D01*
X64876222Y-83138725D01*
X64906565Y-83131125D01*
X64937507Y-83126535D01*
X64968750Y-83125000D01*
X65606250Y-83125000D01*
X65637493Y-83126535D01*
X65637493Y-83126535D01*
G37*
D18*
X65287500Y-83800000D03*
D15*
G36*
X64286759Y-89581192D02*
G01*
X64310785Y-89584756D01*
X64334345Y-89590657D01*
X64357214Y-89598840D01*
X64379171Y-89609224D01*
X64400004Y-89621711D01*
X64419512Y-89636180D01*
X64437509Y-89652491D01*
X64453820Y-89670488D01*
X64468289Y-89689996D01*
X64480776Y-89710829D01*
X64491160Y-89732786D01*
X64499343Y-89755655D01*
X64505244Y-89779215D01*
X64508808Y-89803241D01*
X64510000Y-89827500D01*
X64510000Y-90372500D01*
X64508808Y-90396759D01*
X64505244Y-90420785D01*
X64499343Y-90444345D01*
X64491160Y-90467214D01*
X64480776Y-90489171D01*
X64468289Y-90510004D01*
X64453820Y-90529512D01*
X64437509Y-90547509D01*
X64419512Y-90563820D01*
X64400004Y-90578289D01*
X64379171Y-90590776D01*
X64357214Y-90601160D01*
X64334345Y-90609343D01*
X64310785Y-90615244D01*
X64286759Y-90618808D01*
X64262500Y-90620000D01*
X63767500Y-90620000D01*
X63743241Y-90618808D01*
X63719215Y-90615244D01*
X63695655Y-90609343D01*
X63672786Y-90601160D01*
X63650829Y-90590776D01*
X63629996Y-90578289D01*
X63610488Y-90563820D01*
X63592491Y-90547509D01*
X63576180Y-90529512D01*
X63561711Y-90510004D01*
X63549224Y-90489171D01*
X63538840Y-90467214D01*
X63530657Y-90444345D01*
X63524756Y-90420785D01*
X63521192Y-90396759D01*
X63520000Y-90372500D01*
X63520000Y-89827500D01*
X63521192Y-89803241D01*
X63524756Y-89779215D01*
X63530657Y-89755655D01*
X63538840Y-89732786D01*
X63549224Y-89710829D01*
X63561711Y-89689996D01*
X63576180Y-89670488D01*
X63592491Y-89652491D01*
X63610488Y-89636180D01*
X63629996Y-89621711D01*
X63650829Y-89609224D01*
X63672786Y-89598840D01*
X63695655Y-89590657D01*
X63719215Y-89584756D01*
X63743241Y-89581192D01*
X63767500Y-89580000D01*
X64262500Y-89580000D01*
X64286759Y-89581192D01*
X64286759Y-89581192D01*
G37*
D19*
X64015000Y-90100000D03*
D15*
G36*
X65256759Y-89581192D02*
G01*
X65280785Y-89584756D01*
X65304345Y-89590657D01*
X65327214Y-89598840D01*
X65349171Y-89609224D01*
X65370004Y-89621711D01*
X65389512Y-89636180D01*
X65407509Y-89652491D01*
X65423820Y-89670488D01*
X65438289Y-89689996D01*
X65450776Y-89710829D01*
X65461160Y-89732786D01*
X65469343Y-89755655D01*
X65475244Y-89779215D01*
X65478808Y-89803241D01*
X65480000Y-89827500D01*
X65480000Y-90372500D01*
X65478808Y-90396759D01*
X65475244Y-90420785D01*
X65469343Y-90444345D01*
X65461160Y-90467214D01*
X65450776Y-90489171D01*
X65438289Y-90510004D01*
X65423820Y-90529512D01*
X65407509Y-90547509D01*
X65389512Y-90563820D01*
X65370004Y-90578289D01*
X65349171Y-90590776D01*
X65327214Y-90601160D01*
X65304345Y-90609343D01*
X65280785Y-90615244D01*
X65256759Y-90618808D01*
X65232500Y-90620000D01*
X64737500Y-90620000D01*
X64713241Y-90618808D01*
X64689215Y-90615244D01*
X64665655Y-90609343D01*
X64642786Y-90601160D01*
X64620829Y-90590776D01*
X64599996Y-90578289D01*
X64580488Y-90563820D01*
X64562491Y-90547509D01*
X64546180Y-90529512D01*
X64531711Y-90510004D01*
X64519224Y-90489171D01*
X64508840Y-90467214D01*
X64500657Y-90444345D01*
X64494756Y-90420785D01*
X64491192Y-90396759D01*
X64490000Y-90372500D01*
X64490000Y-89827500D01*
X64491192Y-89803241D01*
X64494756Y-89779215D01*
X64500657Y-89755655D01*
X64508840Y-89732786D01*
X64519224Y-89710829D01*
X64531711Y-89689996D01*
X64546180Y-89670488D01*
X64562491Y-89652491D01*
X64580488Y-89636180D01*
X64599996Y-89621711D01*
X64620829Y-89609224D01*
X64642786Y-89598840D01*
X64665655Y-89590657D01*
X64689215Y-89584756D01*
X64713241Y-89581192D01*
X64737500Y-89580000D01*
X65232500Y-89580000D01*
X65256759Y-89581192D01*
X65256759Y-89581192D01*
G37*
D19*
X64985000Y-90100000D03*
M02*
