G04 #@! TF.GenerationSoftware,KiCad,Pcbnew,5.1.2*
G04 #@! TF.CreationDate,2019-10-11T22:10:39-04:00*
G04 #@! TF.ProjectId,rochester_makerfaire,726f6368-6573-4746-9572-5f6d616b6572,rev?*
G04 #@! TF.SameCoordinates,Original*
G04 #@! TF.FileFunction,Copper,L1,Top*
G04 #@! TF.FilePolarity,Positive*
%FSLAX46Y46*%
G04 Gerber Fmt 4.6, Leading zero omitted, Abs format (unit mm)*
G04 Created by KiCad (PCBNEW 5.1.2) date 2019-10-11 22:10:39*
%MOMM*%
%LPD*%
G04 APERTURE LIST*
%ADD10C,4.400000*%
%ADD11C,1.800000*%
%ADD12R,1.800000X1.800000*%
%ADD13C,3.000000*%
%ADD14C,0.254000*%
G04 APERTURE END LIST*
D10*
X82000000Y-58000000D03*
D11*
X107540000Y-81000000D03*
D12*
X105000000Y-81000000D03*
D13*
X75800000Y-72000000D03*
X89000000Y-72000000D03*
D14*
G36*
X112249899Y-48737907D02*
G01*
X112490285Y-48810484D01*
X112711991Y-48928368D01*
X112906577Y-49087068D01*
X113066635Y-49280545D01*
X113186064Y-49501424D01*
X113260317Y-49741297D01*
X113290000Y-50023716D01*
X113290001Y-139965269D01*
X113262093Y-140249899D01*
X113189517Y-140490282D01*
X113071633Y-140711989D01*
X112912929Y-140906580D01*
X112719455Y-141066635D01*
X112498576Y-141186064D01*
X112258701Y-141260317D01*
X111976291Y-141290000D01*
X52034721Y-141290000D01*
X51750101Y-141262093D01*
X51509718Y-141189517D01*
X51288011Y-141071633D01*
X51093420Y-140912929D01*
X50933365Y-140719455D01*
X50813936Y-140498576D01*
X50739683Y-140258701D01*
X50710000Y-139976291D01*
X50710000Y-80100000D01*
X103461928Y-80100000D01*
X103461928Y-81900000D01*
X103474188Y-82024482D01*
X103510498Y-82144180D01*
X103569463Y-82254494D01*
X103648815Y-82351185D01*
X103745506Y-82430537D01*
X103855820Y-82489502D01*
X103975518Y-82525812D01*
X104100000Y-82538072D01*
X105900000Y-82538072D01*
X106024482Y-82525812D01*
X106144180Y-82489502D01*
X106254494Y-82430537D01*
X106351185Y-82351185D01*
X106430537Y-82254494D01*
X106489502Y-82144180D01*
X106495056Y-82125873D01*
X106561495Y-82192312D01*
X106812905Y-82360299D01*
X107092257Y-82476011D01*
X107388816Y-82535000D01*
X107691184Y-82535000D01*
X107987743Y-82476011D01*
X108267095Y-82360299D01*
X108518505Y-82192312D01*
X108732312Y-81978505D01*
X108900299Y-81727095D01*
X109016011Y-81447743D01*
X109075000Y-81151184D01*
X109075000Y-80848816D01*
X109016011Y-80552257D01*
X108900299Y-80272905D01*
X108732312Y-80021495D01*
X108518505Y-79807688D01*
X108267095Y-79639701D01*
X107987743Y-79523989D01*
X107691184Y-79465000D01*
X107388816Y-79465000D01*
X107092257Y-79523989D01*
X106812905Y-79639701D01*
X106561495Y-79807688D01*
X106495056Y-79874127D01*
X106489502Y-79855820D01*
X106430537Y-79745506D01*
X106351185Y-79648815D01*
X106254494Y-79569463D01*
X106144180Y-79510498D01*
X106024482Y-79474188D01*
X105900000Y-79461928D01*
X104100000Y-79461928D01*
X103975518Y-79474188D01*
X103855820Y-79510498D01*
X103745506Y-79569463D01*
X103648815Y-79648815D01*
X103569463Y-79745506D01*
X103510498Y-79855820D01*
X103474188Y-79975518D01*
X103461928Y-80100000D01*
X50710000Y-80100000D01*
X50710000Y-71789721D01*
X73665000Y-71789721D01*
X73665000Y-72210279D01*
X73747047Y-72622756D01*
X73907988Y-73011302D01*
X74141637Y-73360983D01*
X74439017Y-73658363D01*
X74788698Y-73892012D01*
X75177244Y-74052953D01*
X75589721Y-74135000D01*
X76010279Y-74135000D01*
X76422756Y-74052953D01*
X76811302Y-73892012D01*
X77160983Y-73658363D01*
X77458363Y-73360983D01*
X77692012Y-73011302D01*
X77852953Y-72622756D01*
X77935000Y-72210279D01*
X77935000Y-71789721D01*
X86865000Y-71789721D01*
X86865000Y-72210279D01*
X86947047Y-72622756D01*
X87107988Y-73011302D01*
X87341637Y-73360983D01*
X87639017Y-73658363D01*
X87988698Y-73892012D01*
X88377244Y-74052953D01*
X88789721Y-74135000D01*
X89210279Y-74135000D01*
X89622756Y-74052953D01*
X90011302Y-73892012D01*
X90360983Y-73658363D01*
X90658363Y-73360983D01*
X90892012Y-73011302D01*
X91052953Y-72622756D01*
X91135000Y-72210279D01*
X91135000Y-71789721D01*
X91052953Y-71377244D01*
X90892012Y-70988698D01*
X90658363Y-70639017D01*
X90360983Y-70341637D01*
X90011302Y-70107988D01*
X89622756Y-69947047D01*
X89210279Y-69865000D01*
X88789721Y-69865000D01*
X88377244Y-69947047D01*
X87988698Y-70107988D01*
X87639017Y-70341637D01*
X87341637Y-70639017D01*
X87107988Y-70988698D01*
X86947047Y-71377244D01*
X86865000Y-71789721D01*
X77935000Y-71789721D01*
X77852953Y-71377244D01*
X77692012Y-70988698D01*
X77458363Y-70639017D01*
X77160983Y-70341637D01*
X76811302Y-70107988D01*
X76422756Y-69947047D01*
X76010279Y-69865000D01*
X75589721Y-69865000D01*
X75177244Y-69947047D01*
X74788698Y-70107988D01*
X74439017Y-70341637D01*
X74141637Y-70639017D01*
X73907988Y-70988698D01*
X73747047Y-71377244D01*
X73665000Y-71789721D01*
X50710000Y-71789721D01*
X50710000Y-52949615D01*
X74292971Y-52949615D01*
X74293420Y-53013931D01*
X74292971Y-53078313D01*
X74293939Y-53088179D01*
X74334739Y-53476371D01*
X74347677Y-53539396D01*
X74359737Y-53602618D01*
X74362602Y-53612109D01*
X74478026Y-53984983D01*
X74502960Y-54044299D01*
X74527069Y-54103971D01*
X74531723Y-54112724D01*
X74717374Y-54456079D01*
X74753356Y-54509424D01*
X74788596Y-54563276D01*
X74794861Y-54570958D01*
X75043668Y-54871713D01*
X75089323Y-54917050D01*
X75134353Y-54963033D01*
X75141991Y-54969351D01*
X75444476Y-55216052D01*
X75498041Y-55251640D01*
X75551171Y-55288020D01*
X75559891Y-55292734D01*
X75904533Y-55475984D01*
X75963995Y-55500492D01*
X76023177Y-55525858D01*
X76032647Y-55528789D01*
X76406318Y-55641607D01*
X76469456Y-55654108D01*
X76532388Y-55667485D01*
X76542247Y-55668521D01*
X76929984Y-55706539D01*
X76965123Y-55710000D01*
X80324363Y-55710000D01*
X80192793Y-55797912D01*
X79797912Y-56192793D01*
X79487656Y-56657124D01*
X79273948Y-57173061D01*
X79165000Y-57720777D01*
X79165000Y-58279223D01*
X79273948Y-58826939D01*
X79487656Y-59342876D01*
X79797912Y-59807207D01*
X80192793Y-60202088D01*
X80657124Y-60512344D01*
X81173061Y-60726052D01*
X81720777Y-60835000D01*
X82279223Y-60835000D01*
X82826939Y-60726052D01*
X83342876Y-60512344D01*
X83807207Y-60202088D01*
X84202088Y-59807207D01*
X84512344Y-59342876D01*
X84726052Y-58826939D01*
X84835000Y-58279223D01*
X84835000Y-57720777D01*
X84726052Y-57173061D01*
X84512344Y-56657124D01*
X84202088Y-56192793D01*
X83807207Y-55797912D01*
X83675637Y-55710000D01*
X87034877Y-55710000D01*
X87071257Y-55706417D01*
X87097208Y-55706417D01*
X87107067Y-55705380D01*
X87494967Y-55661870D01*
X87557888Y-55648496D01*
X87621035Y-55635992D01*
X87630504Y-55633061D01*
X88002565Y-55515037D01*
X88061661Y-55489708D01*
X88121210Y-55465164D01*
X88129930Y-55460448D01*
X88471980Y-55272404D01*
X88525050Y-55236066D01*
X88578675Y-55200438D01*
X88586313Y-55194119D01*
X88885324Y-54943219D01*
X88930321Y-54897270D01*
X88976010Y-54851898D01*
X88982275Y-54844216D01*
X89226859Y-54540015D01*
X89262074Y-54486201D01*
X89298080Y-54432819D01*
X89302734Y-54424066D01*
X89483572Y-54078154D01*
X89507663Y-54018527D01*
X89532616Y-53959166D01*
X89535481Y-53949676D01*
X89645688Y-53575226D01*
X89657748Y-53512008D01*
X89670686Y-53448977D01*
X89671653Y-53439111D01*
X89707029Y-53050385D01*
X89706580Y-52986069D01*
X89707029Y-52921687D01*
X89706061Y-52911821D01*
X89665260Y-52523628D01*
X89652330Y-52460640D01*
X89640263Y-52397381D01*
X89637398Y-52387891D01*
X89521974Y-52015016D01*
X89497029Y-51955675D01*
X89472931Y-51896029D01*
X89468277Y-51887276D01*
X89282626Y-51543921D01*
X89246644Y-51490576D01*
X89211404Y-51436724D01*
X89205138Y-51429042D01*
X88956332Y-51128287D01*
X88910677Y-51082950D01*
X88865647Y-51036967D01*
X88858009Y-51030648D01*
X88555524Y-50783948D01*
X88501941Y-50748348D01*
X88448828Y-50711980D01*
X88440108Y-50707265D01*
X88095467Y-50524016D01*
X88035993Y-50499503D01*
X87976823Y-50474142D01*
X87967353Y-50471211D01*
X87593681Y-50358393D01*
X87530551Y-50345893D01*
X87467612Y-50332515D01*
X87457753Y-50331479D01*
X87070016Y-50293461D01*
X87034877Y-50290000D01*
X76965123Y-50290000D01*
X76928743Y-50293583D01*
X76902792Y-50293583D01*
X76892933Y-50294620D01*
X76505034Y-50338130D01*
X76442127Y-50351501D01*
X76378965Y-50364008D01*
X76369496Y-50366939D01*
X75997435Y-50484963D01*
X75938314Y-50510303D01*
X75878791Y-50534836D01*
X75870071Y-50539551D01*
X75528020Y-50727596D01*
X75474966Y-50763923D01*
X75421325Y-50799562D01*
X75413687Y-50805882D01*
X75114676Y-51056781D01*
X75069644Y-51102767D01*
X75023991Y-51148102D01*
X75017725Y-51155784D01*
X74773141Y-51459985D01*
X74737916Y-51513814D01*
X74701920Y-51567181D01*
X74697266Y-51575934D01*
X74516427Y-51921847D01*
X74492312Y-51981533D01*
X74467384Y-52040834D01*
X74464519Y-52050324D01*
X74354312Y-52424774D01*
X74342251Y-52488000D01*
X74329314Y-52551024D01*
X74328347Y-52560890D01*
X74292971Y-52949615D01*
X50710000Y-52949615D01*
X50710000Y-50034721D01*
X50737907Y-49750101D01*
X50810484Y-49509715D01*
X50928368Y-49288009D01*
X51087068Y-49093423D01*
X51280545Y-48933365D01*
X51501424Y-48813936D01*
X51741297Y-48739683D01*
X52023716Y-48710000D01*
X111965279Y-48710000D01*
X112249899Y-48737907D01*
X112249899Y-48737907D01*
G37*
X112249899Y-48737907D02*
X112490285Y-48810484D01*
X112711991Y-48928368D01*
X112906577Y-49087068D01*
X113066635Y-49280545D01*
X113186064Y-49501424D01*
X113260317Y-49741297D01*
X113290000Y-50023716D01*
X113290001Y-139965269D01*
X113262093Y-140249899D01*
X113189517Y-140490282D01*
X113071633Y-140711989D01*
X112912929Y-140906580D01*
X112719455Y-141066635D01*
X112498576Y-141186064D01*
X112258701Y-141260317D01*
X111976291Y-141290000D01*
X52034721Y-141290000D01*
X51750101Y-141262093D01*
X51509718Y-141189517D01*
X51288011Y-141071633D01*
X51093420Y-140912929D01*
X50933365Y-140719455D01*
X50813936Y-140498576D01*
X50739683Y-140258701D01*
X50710000Y-139976291D01*
X50710000Y-80100000D01*
X103461928Y-80100000D01*
X103461928Y-81900000D01*
X103474188Y-82024482D01*
X103510498Y-82144180D01*
X103569463Y-82254494D01*
X103648815Y-82351185D01*
X103745506Y-82430537D01*
X103855820Y-82489502D01*
X103975518Y-82525812D01*
X104100000Y-82538072D01*
X105900000Y-82538072D01*
X106024482Y-82525812D01*
X106144180Y-82489502D01*
X106254494Y-82430537D01*
X106351185Y-82351185D01*
X106430537Y-82254494D01*
X106489502Y-82144180D01*
X106495056Y-82125873D01*
X106561495Y-82192312D01*
X106812905Y-82360299D01*
X107092257Y-82476011D01*
X107388816Y-82535000D01*
X107691184Y-82535000D01*
X107987743Y-82476011D01*
X108267095Y-82360299D01*
X108518505Y-82192312D01*
X108732312Y-81978505D01*
X108900299Y-81727095D01*
X109016011Y-81447743D01*
X109075000Y-81151184D01*
X109075000Y-80848816D01*
X109016011Y-80552257D01*
X108900299Y-80272905D01*
X108732312Y-80021495D01*
X108518505Y-79807688D01*
X108267095Y-79639701D01*
X107987743Y-79523989D01*
X107691184Y-79465000D01*
X107388816Y-79465000D01*
X107092257Y-79523989D01*
X106812905Y-79639701D01*
X106561495Y-79807688D01*
X106495056Y-79874127D01*
X106489502Y-79855820D01*
X106430537Y-79745506D01*
X106351185Y-79648815D01*
X106254494Y-79569463D01*
X106144180Y-79510498D01*
X106024482Y-79474188D01*
X105900000Y-79461928D01*
X104100000Y-79461928D01*
X103975518Y-79474188D01*
X103855820Y-79510498D01*
X103745506Y-79569463D01*
X103648815Y-79648815D01*
X103569463Y-79745506D01*
X103510498Y-79855820D01*
X103474188Y-79975518D01*
X103461928Y-80100000D01*
X50710000Y-80100000D01*
X50710000Y-71789721D01*
X73665000Y-71789721D01*
X73665000Y-72210279D01*
X73747047Y-72622756D01*
X73907988Y-73011302D01*
X74141637Y-73360983D01*
X74439017Y-73658363D01*
X74788698Y-73892012D01*
X75177244Y-74052953D01*
X75589721Y-74135000D01*
X76010279Y-74135000D01*
X76422756Y-74052953D01*
X76811302Y-73892012D01*
X77160983Y-73658363D01*
X77458363Y-73360983D01*
X77692012Y-73011302D01*
X77852953Y-72622756D01*
X77935000Y-72210279D01*
X77935000Y-71789721D01*
X86865000Y-71789721D01*
X86865000Y-72210279D01*
X86947047Y-72622756D01*
X87107988Y-73011302D01*
X87341637Y-73360983D01*
X87639017Y-73658363D01*
X87988698Y-73892012D01*
X88377244Y-74052953D01*
X88789721Y-74135000D01*
X89210279Y-74135000D01*
X89622756Y-74052953D01*
X90011302Y-73892012D01*
X90360983Y-73658363D01*
X90658363Y-73360983D01*
X90892012Y-73011302D01*
X91052953Y-72622756D01*
X91135000Y-72210279D01*
X91135000Y-71789721D01*
X91052953Y-71377244D01*
X90892012Y-70988698D01*
X90658363Y-70639017D01*
X90360983Y-70341637D01*
X90011302Y-70107988D01*
X89622756Y-69947047D01*
X89210279Y-69865000D01*
X88789721Y-69865000D01*
X88377244Y-69947047D01*
X87988698Y-70107988D01*
X87639017Y-70341637D01*
X87341637Y-70639017D01*
X87107988Y-70988698D01*
X86947047Y-71377244D01*
X86865000Y-71789721D01*
X77935000Y-71789721D01*
X77852953Y-71377244D01*
X77692012Y-70988698D01*
X77458363Y-70639017D01*
X77160983Y-70341637D01*
X76811302Y-70107988D01*
X76422756Y-69947047D01*
X76010279Y-69865000D01*
X75589721Y-69865000D01*
X75177244Y-69947047D01*
X74788698Y-70107988D01*
X74439017Y-70341637D01*
X74141637Y-70639017D01*
X73907988Y-70988698D01*
X73747047Y-71377244D01*
X73665000Y-71789721D01*
X50710000Y-71789721D01*
X50710000Y-52949615D01*
X74292971Y-52949615D01*
X74293420Y-53013931D01*
X74292971Y-53078313D01*
X74293939Y-53088179D01*
X74334739Y-53476371D01*
X74347677Y-53539396D01*
X74359737Y-53602618D01*
X74362602Y-53612109D01*
X74478026Y-53984983D01*
X74502960Y-54044299D01*
X74527069Y-54103971D01*
X74531723Y-54112724D01*
X74717374Y-54456079D01*
X74753356Y-54509424D01*
X74788596Y-54563276D01*
X74794861Y-54570958D01*
X75043668Y-54871713D01*
X75089323Y-54917050D01*
X75134353Y-54963033D01*
X75141991Y-54969351D01*
X75444476Y-55216052D01*
X75498041Y-55251640D01*
X75551171Y-55288020D01*
X75559891Y-55292734D01*
X75904533Y-55475984D01*
X75963995Y-55500492D01*
X76023177Y-55525858D01*
X76032647Y-55528789D01*
X76406318Y-55641607D01*
X76469456Y-55654108D01*
X76532388Y-55667485D01*
X76542247Y-55668521D01*
X76929984Y-55706539D01*
X76965123Y-55710000D01*
X80324363Y-55710000D01*
X80192793Y-55797912D01*
X79797912Y-56192793D01*
X79487656Y-56657124D01*
X79273948Y-57173061D01*
X79165000Y-57720777D01*
X79165000Y-58279223D01*
X79273948Y-58826939D01*
X79487656Y-59342876D01*
X79797912Y-59807207D01*
X80192793Y-60202088D01*
X80657124Y-60512344D01*
X81173061Y-60726052D01*
X81720777Y-60835000D01*
X82279223Y-60835000D01*
X82826939Y-60726052D01*
X83342876Y-60512344D01*
X83807207Y-60202088D01*
X84202088Y-59807207D01*
X84512344Y-59342876D01*
X84726052Y-58826939D01*
X84835000Y-58279223D01*
X84835000Y-57720777D01*
X84726052Y-57173061D01*
X84512344Y-56657124D01*
X84202088Y-56192793D01*
X83807207Y-55797912D01*
X83675637Y-55710000D01*
X87034877Y-55710000D01*
X87071257Y-55706417D01*
X87097208Y-55706417D01*
X87107067Y-55705380D01*
X87494967Y-55661870D01*
X87557888Y-55648496D01*
X87621035Y-55635992D01*
X87630504Y-55633061D01*
X88002565Y-55515037D01*
X88061661Y-55489708D01*
X88121210Y-55465164D01*
X88129930Y-55460448D01*
X88471980Y-55272404D01*
X88525050Y-55236066D01*
X88578675Y-55200438D01*
X88586313Y-55194119D01*
X88885324Y-54943219D01*
X88930321Y-54897270D01*
X88976010Y-54851898D01*
X88982275Y-54844216D01*
X89226859Y-54540015D01*
X89262074Y-54486201D01*
X89298080Y-54432819D01*
X89302734Y-54424066D01*
X89483572Y-54078154D01*
X89507663Y-54018527D01*
X89532616Y-53959166D01*
X89535481Y-53949676D01*
X89645688Y-53575226D01*
X89657748Y-53512008D01*
X89670686Y-53448977D01*
X89671653Y-53439111D01*
X89707029Y-53050385D01*
X89706580Y-52986069D01*
X89707029Y-52921687D01*
X89706061Y-52911821D01*
X89665260Y-52523628D01*
X89652330Y-52460640D01*
X89640263Y-52397381D01*
X89637398Y-52387891D01*
X89521974Y-52015016D01*
X89497029Y-51955675D01*
X89472931Y-51896029D01*
X89468277Y-51887276D01*
X89282626Y-51543921D01*
X89246644Y-51490576D01*
X89211404Y-51436724D01*
X89205138Y-51429042D01*
X88956332Y-51128287D01*
X88910677Y-51082950D01*
X88865647Y-51036967D01*
X88858009Y-51030648D01*
X88555524Y-50783948D01*
X88501941Y-50748348D01*
X88448828Y-50711980D01*
X88440108Y-50707265D01*
X88095467Y-50524016D01*
X88035993Y-50499503D01*
X87976823Y-50474142D01*
X87967353Y-50471211D01*
X87593681Y-50358393D01*
X87530551Y-50345893D01*
X87467612Y-50332515D01*
X87457753Y-50331479D01*
X87070016Y-50293461D01*
X87034877Y-50290000D01*
X76965123Y-50290000D01*
X76928743Y-50293583D01*
X76902792Y-50293583D01*
X76892933Y-50294620D01*
X76505034Y-50338130D01*
X76442127Y-50351501D01*
X76378965Y-50364008D01*
X76369496Y-50366939D01*
X75997435Y-50484963D01*
X75938314Y-50510303D01*
X75878791Y-50534836D01*
X75870071Y-50539551D01*
X75528020Y-50727596D01*
X75474966Y-50763923D01*
X75421325Y-50799562D01*
X75413687Y-50805882D01*
X75114676Y-51056781D01*
X75069644Y-51102767D01*
X75023991Y-51148102D01*
X75017725Y-51155784D01*
X74773141Y-51459985D01*
X74737916Y-51513814D01*
X74701920Y-51567181D01*
X74697266Y-51575934D01*
X74516427Y-51921847D01*
X74492312Y-51981533D01*
X74467384Y-52040834D01*
X74464519Y-52050324D01*
X74354312Y-52424774D01*
X74342251Y-52488000D01*
X74329314Y-52551024D01*
X74328347Y-52560890D01*
X74292971Y-52949615D01*
X50710000Y-52949615D01*
X50710000Y-50034721D01*
X50737907Y-49750101D01*
X50810484Y-49509715D01*
X50928368Y-49288009D01*
X51087068Y-49093423D01*
X51280545Y-48933365D01*
X51501424Y-48813936D01*
X51741297Y-48739683D01*
X52023716Y-48710000D01*
X111965279Y-48710000D01*
X112249899Y-48737907D01*
M02*
