G04 #@! TF.GenerationSoftware,KiCad,Pcbnew,5.1.2*
G04 #@! TF.CreationDate,2019-10-11T22:10:39-04:00*
G04 #@! TF.ProjectId,rochester_makerfaire,726f6368-6573-4746-9572-5f6d616b6572,rev?*
G04 #@! TF.SameCoordinates,Original*
G04 #@! TF.FileFunction,Soldermask,Top*
G04 #@! TF.FilePolarity,Negative*
%FSLAX46Y46*%
G04 Gerber Fmt 4.6, Leading zero omitted, Abs format (unit mm)*
G04 Created by KiCad (PCBNEW 5.1.2) date 2019-10-11 22:10:39*
%MOMM*%
%LPD*%
G04 APERTURE LIST*
%ADD10C,0.300000*%
%ADD11C,1.000000*%
%ADD12C,4.800000*%
%ADD13C,2.200000*%
%ADD14R,2.200000X2.200000*%
%ADD15C,3.400000*%
G04 APERTURE END LIST*
D10*
X91535714Y-123678571D02*
X91821428Y-124678571D01*
X92107142Y-123964285D01*
X92392857Y-124678571D01*
X92678571Y-123678571D01*
X93107142Y-123678571D02*
X93392857Y-124678571D01*
X93678571Y-123964285D01*
X93964285Y-124678571D01*
X94250000Y-123678571D01*
X94678571Y-123678571D02*
X94964285Y-124678571D01*
X95250000Y-123964285D01*
X95535714Y-124678571D01*
X95821428Y-123678571D01*
X96392857Y-124535714D02*
X96464285Y-124607142D01*
X96392857Y-124678571D01*
X96321428Y-124607142D01*
X96392857Y-124535714D01*
X96392857Y-124678571D01*
X97107142Y-124678571D02*
X97107142Y-123678571D01*
X97107142Y-123964285D02*
X97178571Y-123821428D01*
X97250000Y-123750000D01*
X97392857Y-123678571D01*
X97535714Y-123678571D01*
X98250000Y-124678571D02*
X98107142Y-124607142D01*
X98035714Y-124535714D01*
X97964285Y-124392857D01*
X97964285Y-123964285D01*
X98035714Y-123821428D01*
X98107142Y-123750000D01*
X98250000Y-123678571D01*
X98464285Y-123678571D01*
X98607142Y-123750000D01*
X98678571Y-123821428D01*
X98750000Y-123964285D01*
X98750000Y-124392857D01*
X98678571Y-124535714D01*
X98607142Y-124607142D01*
X98464285Y-124678571D01*
X98250000Y-124678571D01*
X100035714Y-124607142D02*
X99892857Y-124678571D01*
X99607142Y-124678571D01*
X99464285Y-124607142D01*
X99392857Y-124535714D01*
X99321428Y-124392857D01*
X99321428Y-123964285D01*
X99392857Y-123821428D01*
X99464285Y-123750000D01*
X99607142Y-123678571D01*
X99892857Y-123678571D01*
X100035714Y-123750000D01*
X100678571Y-124678571D02*
X100678571Y-123678571D01*
X100678571Y-123821428D02*
X100750000Y-123750000D01*
X100892857Y-123678571D01*
X101107142Y-123678571D01*
X101250000Y-123750000D01*
X101321428Y-123892857D01*
X101321428Y-124678571D01*
X101321428Y-123892857D02*
X101392857Y-123750000D01*
X101535714Y-123678571D01*
X101750000Y-123678571D01*
X101892857Y-123750000D01*
X101964285Y-123892857D01*
X101964285Y-124678571D01*
X103321428Y-124678571D02*
X103321428Y-123892857D01*
X103250000Y-123750000D01*
X103107142Y-123678571D01*
X102821428Y-123678571D01*
X102678571Y-123750000D01*
X103321428Y-124607142D02*
X103178571Y-124678571D01*
X102821428Y-124678571D01*
X102678571Y-124607142D01*
X102607142Y-124464285D01*
X102607142Y-124321428D01*
X102678571Y-124178571D01*
X102821428Y-124107142D01*
X103178571Y-124107142D01*
X103321428Y-124035714D01*
X104035714Y-124678571D02*
X104035714Y-123178571D01*
X104178571Y-124107142D02*
X104607142Y-124678571D01*
X104607142Y-123678571D02*
X104035714Y-124250000D01*
X105821428Y-124607142D02*
X105678571Y-124678571D01*
X105392857Y-124678571D01*
X105250000Y-124607142D01*
X105178571Y-124464285D01*
X105178571Y-123892857D01*
X105250000Y-123750000D01*
X105392857Y-123678571D01*
X105678571Y-123678571D01*
X105821428Y-123750000D01*
X105892857Y-123892857D01*
X105892857Y-124035714D01*
X105178571Y-124178571D01*
X106535714Y-124678571D02*
X106535714Y-123678571D01*
X106535714Y-123964285D02*
X106607142Y-123821428D01*
X106678571Y-123750000D01*
X106821428Y-123678571D01*
X106964285Y-123678571D01*
X107392857Y-124607142D02*
X107535714Y-124678571D01*
X107821428Y-124678571D01*
X107964285Y-124607142D01*
X108035714Y-124464285D01*
X108035714Y-124392857D01*
X107964285Y-124250000D01*
X107821428Y-124178571D01*
X107607142Y-124178571D01*
X107464285Y-124107142D01*
X107392857Y-123964285D01*
X107392857Y-123892857D01*
X107464285Y-123750000D01*
X107607142Y-123678571D01*
X107821428Y-123678571D01*
X107964285Y-123750000D01*
X108678571Y-124535714D02*
X108750000Y-124607142D01*
X108678571Y-124678571D01*
X108607142Y-124607142D01*
X108678571Y-124535714D01*
X108678571Y-124678571D01*
X109607142Y-124678571D02*
X109464285Y-124607142D01*
X109392857Y-124535714D01*
X109321428Y-124392857D01*
X109321428Y-123964285D01*
X109392857Y-123821428D01*
X109464285Y-123750000D01*
X109607142Y-123678571D01*
X109821428Y-123678571D01*
X109964285Y-123750000D01*
X110035714Y-123821428D01*
X110107142Y-123964285D01*
X110107142Y-124392857D01*
X110035714Y-124535714D01*
X109964285Y-124607142D01*
X109821428Y-124678571D01*
X109607142Y-124678571D01*
X110750000Y-124678571D02*
X110750000Y-123678571D01*
X110750000Y-123964285D02*
X110821428Y-123821428D01*
X110892857Y-123750000D01*
X111035714Y-123678571D01*
X111178571Y-123678571D01*
X112321428Y-123678571D02*
X112321428Y-124892857D01*
X112250000Y-125035714D01*
X112178571Y-125107142D01*
X112035714Y-125178571D01*
X111821428Y-125178571D01*
X111678571Y-125107142D01*
X112321428Y-124607142D02*
X112178571Y-124678571D01*
X111892857Y-124678571D01*
X111750000Y-124607142D01*
X111678571Y-124535714D01*
X111607142Y-124392857D01*
X111607142Y-123964285D01*
X111678571Y-123821428D01*
X111750000Y-123750000D01*
X111892857Y-123678571D01*
X112178571Y-123678571D01*
X112321428Y-123750000D01*
D11*
X61714285Y-84523809D02*
X61714285Y-74523809D01*
X65047619Y-81666666D01*
X68380952Y-74523809D01*
X68380952Y-84523809D01*
X77428571Y-84523809D02*
X77428571Y-79285714D01*
X76952380Y-78333333D01*
X76000000Y-77857142D01*
X74095238Y-77857142D01*
X73142857Y-78333333D01*
X77428571Y-84047619D02*
X76476190Y-84523809D01*
X74095238Y-84523809D01*
X73142857Y-84047619D01*
X72666666Y-83095238D01*
X72666666Y-82142857D01*
X73142857Y-81190476D01*
X74095238Y-80714285D01*
X76476190Y-80714285D01*
X77428571Y-80238095D01*
X82190476Y-84523809D02*
X82190476Y-74523809D01*
X83142857Y-80714285D02*
X86000000Y-84523809D01*
X86000000Y-77857142D02*
X82190476Y-81666666D01*
X94095238Y-84047619D02*
X93142857Y-84523809D01*
X91238095Y-84523809D01*
X90285714Y-84047619D01*
X89809523Y-83095238D01*
X89809523Y-79285714D01*
X90285714Y-78333333D01*
X91238095Y-77857142D01*
X93142857Y-77857142D01*
X94095238Y-78333333D01*
X94571428Y-79285714D01*
X94571428Y-80238095D01*
X89809523Y-81190476D01*
X98857142Y-84523809D02*
X98857142Y-77857142D01*
X98857142Y-79761904D02*
X99333333Y-78809523D01*
X99809523Y-78333333D01*
X100761904Y-77857142D01*
X101714285Y-77857142D01*
D12*
X82000000Y-58000000D03*
D13*
X107540000Y-81000000D03*
D14*
X105000000Y-81000000D03*
D15*
X75800000Y-72000000D03*
X89000000Y-72000000D03*
M02*
