G04 #@! TF.GenerationSoftware,KiCad,Pcbnew,5.1.2*
G04 #@! TF.CreationDate,2019-10-11T22:10:39-04:00*
G04 #@! TF.ProjectId,rochester_makerfaire,726f6368-6573-4746-9572-5f6d616b6572,rev?*
G04 #@! TF.SameCoordinates,Original*
G04 #@! TF.FileFunction,Paste,Bot*
G04 #@! TF.FilePolarity,Positive*
%FSLAX46Y46*%
G04 Gerber Fmt 4.6, Leading zero omitted, Abs format (unit mm)*
G04 Created by KiCad (PCBNEW 5.1.2) date 2019-10-11 22:10:39*
%MOMM*%
%LPD*%
G04 APERTURE LIST*
%ADD10C,0.100000*%
%ADD11C,1.250000*%
%ADD12C,0.975000*%
%ADD13C,0.875000*%
%ADD14C,0.590000*%
G04 APERTURE END LIST*
D10*
G36*
X81699504Y-83226204D02*
G01*
X81723773Y-83229804D01*
X81747571Y-83235765D01*
X81770671Y-83244030D01*
X81792849Y-83254520D01*
X81813893Y-83267133D01*
X81833598Y-83281747D01*
X81851777Y-83298223D01*
X81868253Y-83316402D01*
X81882867Y-83336107D01*
X81895480Y-83357151D01*
X81905970Y-83379329D01*
X81914235Y-83402429D01*
X81920196Y-83426227D01*
X81923796Y-83450496D01*
X81925000Y-83475000D01*
X81925000Y-84725000D01*
X81923796Y-84749504D01*
X81920196Y-84773773D01*
X81914235Y-84797571D01*
X81905970Y-84820671D01*
X81895480Y-84842849D01*
X81882867Y-84863893D01*
X81868253Y-84883598D01*
X81851777Y-84901777D01*
X81833598Y-84918253D01*
X81813893Y-84932867D01*
X81792849Y-84945480D01*
X81770671Y-84955970D01*
X81747571Y-84964235D01*
X81723773Y-84970196D01*
X81699504Y-84973796D01*
X81675000Y-84975000D01*
X80925000Y-84975000D01*
X80900496Y-84973796D01*
X80876227Y-84970196D01*
X80852429Y-84964235D01*
X80829329Y-84955970D01*
X80807151Y-84945480D01*
X80786107Y-84932867D01*
X80766402Y-84918253D01*
X80748223Y-84901777D01*
X80731747Y-84883598D01*
X80717133Y-84863893D01*
X80704520Y-84842849D01*
X80694030Y-84820671D01*
X80685765Y-84797571D01*
X80679804Y-84773773D01*
X80676204Y-84749504D01*
X80675000Y-84725000D01*
X80675000Y-83475000D01*
X80676204Y-83450496D01*
X80679804Y-83426227D01*
X80685765Y-83402429D01*
X80694030Y-83379329D01*
X80704520Y-83357151D01*
X80717133Y-83336107D01*
X80731747Y-83316402D01*
X80748223Y-83298223D01*
X80766402Y-83281747D01*
X80786107Y-83267133D01*
X80807151Y-83254520D01*
X80829329Y-83244030D01*
X80852429Y-83235765D01*
X80876227Y-83229804D01*
X80900496Y-83226204D01*
X80925000Y-83225000D01*
X81675000Y-83225000D01*
X81699504Y-83226204D01*
X81699504Y-83226204D01*
G37*
D11*
X81300000Y-84100000D03*
D10*
G36*
X84499504Y-83226204D02*
G01*
X84523773Y-83229804D01*
X84547571Y-83235765D01*
X84570671Y-83244030D01*
X84592849Y-83254520D01*
X84613893Y-83267133D01*
X84633598Y-83281747D01*
X84651777Y-83298223D01*
X84668253Y-83316402D01*
X84682867Y-83336107D01*
X84695480Y-83357151D01*
X84705970Y-83379329D01*
X84714235Y-83402429D01*
X84720196Y-83426227D01*
X84723796Y-83450496D01*
X84725000Y-83475000D01*
X84725000Y-84725000D01*
X84723796Y-84749504D01*
X84720196Y-84773773D01*
X84714235Y-84797571D01*
X84705970Y-84820671D01*
X84695480Y-84842849D01*
X84682867Y-84863893D01*
X84668253Y-84883598D01*
X84651777Y-84901777D01*
X84633598Y-84918253D01*
X84613893Y-84932867D01*
X84592849Y-84945480D01*
X84570671Y-84955970D01*
X84547571Y-84964235D01*
X84523773Y-84970196D01*
X84499504Y-84973796D01*
X84475000Y-84975000D01*
X83725000Y-84975000D01*
X83700496Y-84973796D01*
X83676227Y-84970196D01*
X83652429Y-84964235D01*
X83629329Y-84955970D01*
X83607151Y-84945480D01*
X83586107Y-84932867D01*
X83566402Y-84918253D01*
X83548223Y-84901777D01*
X83531747Y-84883598D01*
X83517133Y-84863893D01*
X83504520Y-84842849D01*
X83494030Y-84820671D01*
X83485765Y-84797571D01*
X83479804Y-84773773D01*
X83476204Y-84749504D01*
X83475000Y-84725000D01*
X83475000Y-83475000D01*
X83476204Y-83450496D01*
X83479804Y-83426227D01*
X83485765Y-83402429D01*
X83494030Y-83379329D01*
X83504520Y-83357151D01*
X83517133Y-83336107D01*
X83531747Y-83316402D01*
X83548223Y-83298223D01*
X83566402Y-83281747D01*
X83586107Y-83267133D01*
X83607151Y-83254520D01*
X83629329Y-83244030D01*
X83652429Y-83235765D01*
X83676227Y-83229804D01*
X83700496Y-83226204D01*
X83725000Y-83225000D01*
X84475000Y-83225000D01*
X84499504Y-83226204D01*
X84499504Y-83226204D01*
G37*
D11*
X84100000Y-84100000D03*
D10*
G36*
X82630142Y-89501174D02*
G01*
X82653803Y-89504684D01*
X82677007Y-89510496D01*
X82699529Y-89518554D01*
X82721153Y-89528782D01*
X82741670Y-89541079D01*
X82760883Y-89555329D01*
X82778607Y-89571393D01*
X82794671Y-89589117D01*
X82808921Y-89608330D01*
X82821218Y-89628847D01*
X82831446Y-89650471D01*
X82839504Y-89672993D01*
X82845316Y-89696197D01*
X82848826Y-89719858D01*
X82850000Y-89743750D01*
X82850000Y-90656250D01*
X82848826Y-90680142D01*
X82845316Y-90703803D01*
X82839504Y-90727007D01*
X82831446Y-90749529D01*
X82821218Y-90771153D01*
X82808921Y-90791670D01*
X82794671Y-90810883D01*
X82778607Y-90828607D01*
X82760883Y-90844671D01*
X82741670Y-90858921D01*
X82721153Y-90871218D01*
X82699529Y-90881446D01*
X82677007Y-90889504D01*
X82653803Y-90895316D01*
X82630142Y-90898826D01*
X82606250Y-90900000D01*
X82118750Y-90900000D01*
X82094858Y-90898826D01*
X82071197Y-90895316D01*
X82047993Y-90889504D01*
X82025471Y-90881446D01*
X82003847Y-90871218D01*
X81983330Y-90858921D01*
X81964117Y-90844671D01*
X81946393Y-90828607D01*
X81930329Y-90810883D01*
X81916079Y-90791670D01*
X81903782Y-90771153D01*
X81893554Y-90749529D01*
X81885496Y-90727007D01*
X81879684Y-90703803D01*
X81876174Y-90680142D01*
X81875000Y-90656250D01*
X81875000Y-89743750D01*
X81876174Y-89719858D01*
X81879684Y-89696197D01*
X81885496Y-89672993D01*
X81893554Y-89650471D01*
X81903782Y-89628847D01*
X81916079Y-89608330D01*
X81930329Y-89589117D01*
X81946393Y-89571393D01*
X81964117Y-89555329D01*
X81983330Y-89541079D01*
X82003847Y-89528782D01*
X82025471Y-89518554D01*
X82047993Y-89510496D01*
X82071197Y-89504684D01*
X82094858Y-89501174D01*
X82118750Y-89500000D01*
X82606250Y-89500000D01*
X82630142Y-89501174D01*
X82630142Y-89501174D01*
G37*
D12*
X82362500Y-90200000D03*
D10*
G36*
X84505142Y-89501174D02*
G01*
X84528803Y-89504684D01*
X84552007Y-89510496D01*
X84574529Y-89518554D01*
X84596153Y-89528782D01*
X84616670Y-89541079D01*
X84635883Y-89555329D01*
X84653607Y-89571393D01*
X84669671Y-89589117D01*
X84683921Y-89608330D01*
X84696218Y-89628847D01*
X84706446Y-89650471D01*
X84714504Y-89672993D01*
X84720316Y-89696197D01*
X84723826Y-89719858D01*
X84725000Y-89743750D01*
X84725000Y-90656250D01*
X84723826Y-90680142D01*
X84720316Y-90703803D01*
X84714504Y-90727007D01*
X84706446Y-90749529D01*
X84696218Y-90771153D01*
X84683921Y-90791670D01*
X84669671Y-90810883D01*
X84653607Y-90828607D01*
X84635883Y-90844671D01*
X84616670Y-90858921D01*
X84596153Y-90871218D01*
X84574529Y-90881446D01*
X84552007Y-90889504D01*
X84528803Y-90895316D01*
X84505142Y-90898826D01*
X84481250Y-90900000D01*
X83993750Y-90900000D01*
X83969858Y-90898826D01*
X83946197Y-90895316D01*
X83922993Y-90889504D01*
X83900471Y-90881446D01*
X83878847Y-90871218D01*
X83858330Y-90858921D01*
X83839117Y-90844671D01*
X83821393Y-90828607D01*
X83805329Y-90810883D01*
X83791079Y-90791670D01*
X83778782Y-90771153D01*
X83768554Y-90749529D01*
X83760496Y-90727007D01*
X83754684Y-90703803D01*
X83751174Y-90680142D01*
X83750000Y-90656250D01*
X83750000Y-89743750D01*
X83751174Y-89719858D01*
X83754684Y-89696197D01*
X83760496Y-89672993D01*
X83768554Y-89650471D01*
X83778782Y-89628847D01*
X83791079Y-89608330D01*
X83805329Y-89589117D01*
X83821393Y-89571393D01*
X83839117Y-89555329D01*
X83858330Y-89541079D01*
X83878847Y-89528782D01*
X83900471Y-89518554D01*
X83922993Y-89510496D01*
X83946197Y-89504684D01*
X83969858Y-89501174D01*
X83993750Y-89500000D01*
X84481250Y-89500000D01*
X84505142Y-89501174D01*
X84505142Y-89501174D01*
G37*
D12*
X84237500Y-90200000D03*
D10*
G36*
X63952691Y-83326053D02*
G01*
X63973926Y-83329203D01*
X63994750Y-83334419D01*
X64014962Y-83341651D01*
X64034368Y-83350830D01*
X64052781Y-83361866D01*
X64070024Y-83374654D01*
X64085930Y-83389070D01*
X64100346Y-83404976D01*
X64113134Y-83422219D01*
X64124170Y-83440632D01*
X64133349Y-83460038D01*
X64140581Y-83480250D01*
X64145797Y-83501074D01*
X64148947Y-83522309D01*
X64150000Y-83543750D01*
X64150000Y-84056250D01*
X64148947Y-84077691D01*
X64145797Y-84098926D01*
X64140581Y-84119750D01*
X64133349Y-84139962D01*
X64124170Y-84159368D01*
X64113134Y-84177781D01*
X64100346Y-84195024D01*
X64085930Y-84210930D01*
X64070024Y-84225346D01*
X64052781Y-84238134D01*
X64034368Y-84249170D01*
X64014962Y-84258349D01*
X63994750Y-84265581D01*
X63973926Y-84270797D01*
X63952691Y-84273947D01*
X63931250Y-84275000D01*
X63493750Y-84275000D01*
X63472309Y-84273947D01*
X63451074Y-84270797D01*
X63430250Y-84265581D01*
X63410038Y-84258349D01*
X63390632Y-84249170D01*
X63372219Y-84238134D01*
X63354976Y-84225346D01*
X63339070Y-84210930D01*
X63324654Y-84195024D01*
X63311866Y-84177781D01*
X63300830Y-84159368D01*
X63291651Y-84139962D01*
X63284419Y-84119750D01*
X63279203Y-84098926D01*
X63276053Y-84077691D01*
X63275000Y-84056250D01*
X63275000Y-83543750D01*
X63276053Y-83522309D01*
X63279203Y-83501074D01*
X63284419Y-83480250D01*
X63291651Y-83460038D01*
X63300830Y-83440632D01*
X63311866Y-83422219D01*
X63324654Y-83404976D01*
X63339070Y-83389070D01*
X63354976Y-83374654D01*
X63372219Y-83361866D01*
X63390632Y-83350830D01*
X63410038Y-83341651D01*
X63430250Y-83334419D01*
X63451074Y-83329203D01*
X63472309Y-83326053D01*
X63493750Y-83325000D01*
X63931250Y-83325000D01*
X63952691Y-83326053D01*
X63952691Y-83326053D01*
G37*
D13*
X63712500Y-83800000D03*
D10*
G36*
X65527691Y-83326053D02*
G01*
X65548926Y-83329203D01*
X65569750Y-83334419D01*
X65589962Y-83341651D01*
X65609368Y-83350830D01*
X65627781Y-83361866D01*
X65645024Y-83374654D01*
X65660930Y-83389070D01*
X65675346Y-83404976D01*
X65688134Y-83422219D01*
X65699170Y-83440632D01*
X65708349Y-83460038D01*
X65715581Y-83480250D01*
X65720797Y-83501074D01*
X65723947Y-83522309D01*
X65725000Y-83543750D01*
X65725000Y-84056250D01*
X65723947Y-84077691D01*
X65720797Y-84098926D01*
X65715581Y-84119750D01*
X65708349Y-84139962D01*
X65699170Y-84159368D01*
X65688134Y-84177781D01*
X65675346Y-84195024D01*
X65660930Y-84210930D01*
X65645024Y-84225346D01*
X65627781Y-84238134D01*
X65609368Y-84249170D01*
X65589962Y-84258349D01*
X65569750Y-84265581D01*
X65548926Y-84270797D01*
X65527691Y-84273947D01*
X65506250Y-84275000D01*
X65068750Y-84275000D01*
X65047309Y-84273947D01*
X65026074Y-84270797D01*
X65005250Y-84265581D01*
X64985038Y-84258349D01*
X64965632Y-84249170D01*
X64947219Y-84238134D01*
X64929976Y-84225346D01*
X64914070Y-84210930D01*
X64899654Y-84195024D01*
X64886866Y-84177781D01*
X64875830Y-84159368D01*
X64866651Y-84139962D01*
X64859419Y-84119750D01*
X64854203Y-84098926D01*
X64851053Y-84077691D01*
X64850000Y-84056250D01*
X64850000Y-83543750D01*
X64851053Y-83522309D01*
X64854203Y-83501074D01*
X64859419Y-83480250D01*
X64866651Y-83460038D01*
X64875830Y-83440632D01*
X64886866Y-83422219D01*
X64899654Y-83404976D01*
X64914070Y-83389070D01*
X64929976Y-83374654D01*
X64947219Y-83361866D01*
X64965632Y-83350830D01*
X64985038Y-83341651D01*
X65005250Y-83334419D01*
X65026074Y-83329203D01*
X65047309Y-83326053D01*
X65068750Y-83325000D01*
X65506250Y-83325000D01*
X65527691Y-83326053D01*
X65527691Y-83326053D01*
G37*
D13*
X65287500Y-83800000D03*
D10*
G36*
X64176958Y-89780710D02*
G01*
X64191276Y-89782834D01*
X64205317Y-89786351D01*
X64218946Y-89791228D01*
X64232031Y-89797417D01*
X64244447Y-89804858D01*
X64256073Y-89813481D01*
X64266798Y-89823202D01*
X64276519Y-89833927D01*
X64285142Y-89845553D01*
X64292583Y-89857969D01*
X64298772Y-89871054D01*
X64303649Y-89884683D01*
X64307166Y-89898724D01*
X64309290Y-89913042D01*
X64310000Y-89927500D01*
X64310000Y-90272500D01*
X64309290Y-90286958D01*
X64307166Y-90301276D01*
X64303649Y-90315317D01*
X64298772Y-90328946D01*
X64292583Y-90342031D01*
X64285142Y-90354447D01*
X64276519Y-90366073D01*
X64266798Y-90376798D01*
X64256073Y-90386519D01*
X64244447Y-90395142D01*
X64232031Y-90402583D01*
X64218946Y-90408772D01*
X64205317Y-90413649D01*
X64191276Y-90417166D01*
X64176958Y-90419290D01*
X64162500Y-90420000D01*
X63867500Y-90420000D01*
X63853042Y-90419290D01*
X63838724Y-90417166D01*
X63824683Y-90413649D01*
X63811054Y-90408772D01*
X63797969Y-90402583D01*
X63785553Y-90395142D01*
X63773927Y-90386519D01*
X63763202Y-90376798D01*
X63753481Y-90366073D01*
X63744858Y-90354447D01*
X63737417Y-90342031D01*
X63731228Y-90328946D01*
X63726351Y-90315317D01*
X63722834Y-90301276D01*
X63720710Y-90286958D01*
X63720000Y-90272500D01*
X63720000Y-89927500D01*
X63720710Y-89913042D01*
X63722834Y-89898724D01*
X63726351Y-89884683D01*
X63731228Y-89871054D01*
X63737417Y-89857969D01*
X63744858Y-89845553D01*
X63753481Y-89833927D01*
X63763202Y-89823202D01*
X63773927Y-89813481D01*
X63785553Y-89804858D01*
X63797969Y-89797417D01*
X63811054Y-89791228D01*
X63824683Y-89786351D01*
X63838724Y-89782834D01*
X63853042Y-89780710D01*
X63867500Y-89780000D01*
X64162500Y-89780000D01*
X64176958Y-89780710D01*
X64176958Y-89780710D01*
G37*
D14*
X64015000Y-90100000D03*
D10*
G36*
X65146958Y-89780710D02*
G01*
X65161276Y-89782834D01*
X65175317Y-89786351D01*
X65188946Y-89791228D01*
X65202031Y-89797417D01*
X65214447Y-89804858D01*
X65226073Y-89813481D01*
X65236798Y-89823202D01*
X65246519Y-89833927D01*
X65255142Y-89845553D01*
X65262583Y-89857969D01*
X65268772Y-89871054D01*
X65273649Y-89884683D01*
X65277166Y-89898724D01*
X65279290Y-89913042D01*
X65280000Y-89927500D01*
X65280000Y-90272500D01*
X65279290Y-90286958D01*
X65277166Y-90301276D01*
X65273649Y-90315317D01*
X65268772Y-90328946D01*
X65262583Y-90342031D01*
X65255142Y-90354447D01*
X65246519Y-90366073D01*
X65236798Y-90376798D01*
X65226073Y-90386519D01*
X65214447Y-90395142D01*
X65202031Y-90402583D01*
X65188946Y-90408772D01*
X65175317Y-90413649D01*
X65161276Y-90417166D01*
X65146958Y-90419290D01*
X65132500Y-90420000D01*
X64837500Y-90420000D01*
X64823042Y-90419290D01*
X64808724Y-90417166D01*
X64794683Y-90413649D01*
X64781054Y-90408772D01*
X64767969Y-90402583D01*
X64755553Y-90395142D01*
X64743927Y-90386519D01*
X64733202Y-90376798D01*
X64723481Y-90366073D01*
X64714858Y-90354447D01*
X64707417Y-90342031D01*
X64701228Y-90328946D01*
X64696351Y-90315317D01*
X64692834Y-90301276D01*
X64690710Y-90286958D01*
X64690000Y-90272500D01*
X64690000Y-89927500D01*
X64690710Y-89913042D01*
X64692834Y-89898724D01*
X64696351Y-89884683D01*
X64701228Y-89871054D01*
X64707417Y-89857969D01*
X64714858Y-89845553D01*
X64723481Y-89833927D01*
X64733202Y-89823202D01*
X64743927Y-89813481D01*
X64755553Y-89804858D01*
X64767969Y-89797417D01*
X64781054Y-89791228D01*
X64794683Y-89786351D01*
X64808724Y-89782834D01*
X64823042Y-89780710D01*
X64837500Y-89780000D01*
X65132500Y-89780000D01*
X65146958Y-89780710D01*
X65146958Y-89780710D01*
G37*
D14*
X64985000Y-90100000D03*
M02*
